# xmcd
#
# Track frame offsets:
#	150
#	15930
#	30703
#	47488
#	64949
#	82382
#	99641
#	118434
#	134400
#	151651
#	168602
#	188786
#
# Disc length: 2784 seconds
#
# Revision: 0
# Processed by: cddbd v1.5.2PL0 Copyright (c) Steve Scherf et al.
# Submitted via: dBpowerAMP V4.0
#
DISCID=a10ade0c
DTITLE=JoJo - The High Road
DYEAR=2006
DGENRE=
TTITLE0=This Time
TTITLE1=The Way You Do Me
TTITLE2=Too Little Too Late
TTITLE3=The High Road
TTITLE4=Anything
TTITLE5=Like That
TTITLE6=Good Ol'
TTITLE7=Coming For You
TTITLE8=Let It Rain
TTITLE9=Exceptional
TTITLE10=How To Touch A Girl
TTITLE11=Note To God
EXTD=
EXTT0=
EXTT1=
EXTT2=
EXTT3=
EXTT4=
EXTT5=
EXTT6=
EXTT7=
EXTT8=
EXTT9=
EXTT10=
EXTT11=
PLAYORDER=
